<?xml version="1.0" encoding="UTF-8"?>
<svg version="1.1" xmlns="http://www.w3.org/2000/svg" width="314" height="231">
<path d="M0 0 C103.62 0 207.24 0 314 0 C314 76.23 314 152.46 314 231 C210.38 231 106.76 231 0 231 C0 154.77 0 78.54 0 0 Z " fill="#FDFCFD" transform="translate(0,0)"/>
<path d="M0 0 C13.53 0 27.06 0 41 0 C41 13.53 41 27.06 41 41 C27.47 41 13.94 41 0 41 C0 36.71 0 32.42 0 28 C-20.10267333 26.26964155 -20.10267333 26.26964155 -38.05371094 32.61401367 C-39.70794579 34.42749767 -41.16860128 36.37128628 -42.6340332 38.33863831 C-46.70197848 43.28629038 -51.03107774 47.39455545 -57.44619751 48.70277405 C-61.46032566 48.92281023 -65.39925566 48.90277705 -69.4140625 48.78125 C-70.87947474 48.76629668 -72.34492746 48.75492429 -73.81039429 48.74694824 C-77.63533347 48.716654 -81.45777457 48.63830173 -85.28173828 48.54931641 C-89.19659643 48.4669241 -93.11186528 48.43082417 -97.02734375 48.390625 C-104.68615731 48.30527146 -112.34240796 48.1647748 -120 48 C-120 51.96 -120 55.92 -120 60 C-102.84 60 -85.68 60 -68 60 C-66.68 64.29 -65.36 68.58 -64 73 C-52.12 73.33 -40.24 73.66 -28 74 C-28 69.71 -28 65.42 -28 61 C-14.14 61 -0.28 61 14 61 C14 74.53 14 88.06 14 102 C0.14 102 -13.72 102 -28 102 C-28 97.38 -28 92.76 -28 88 C-68.26 88 -108.52 88 -150 88 C-150 91.96 -150 95.92 -150 100 C-121.62 100 -93.24 100 -64 100 C-65 110 -65 110 -66 114 C-64.74977051 113.9371582 -63.49954102 113.87431641 -62.21142578 113.80957031 C-57.53459395 113.5909593 -52.85820293 113.45413056 -48.17773438 113.34082031 C-46.15970744 113.28078304 -44.14219583 113.19911564 -42.12597656 113.09472656 C-24.44673964 112.20289562 -24.44673964 112.20289562 -19.49560547 116.57958984 C-16.87667347 119.44749398 -14.92515464 122.63043122 -13 126 C-11.97267904 127.38575109 -10.93378676 128.76313912 -9.875 130.125 C-8 133 -8 133 -8 135 C2.56 135 13.12 135 24 135 C24 130.05 24 125.1 24 120 C37.53 120 51.06 120 65 120 C65 133.53 65 147.06 65 161 C51.47 161 37.94 161 24 161 C24 157.04 24 153.08 24 149 C22.32997925 149.14139404 22.32997925 149.14139404 20.6262207 149.28564453 C-10.22442411 151.67975444 -10.22442411 151.67975444 -18.09082031 147.265625 C-22.39109414 143.18768564 -25.08197053 138.38388617 -27.19848633 132.87939453 C-27.94413682 130.80717235 -27.94413682 130.80717235 -30 129 C-32.61806486 128.78260024 -35.13357846 128.68860584 -37.75439453 128.68115234 C-38.95452179 128.66608391 -38.95452179 128.66608391 -40.17889404 128.65071106 C-42.83019271 128.61975729 -45.48138986 128.60281028 -48.1328125 128.5859375 C-49.96842327 128.56723564 -51.80402536 128.54766297 -53.63961792 128.5272522 C-58.47616466 128.47582118 -63.31273932 128.43625433 -68.14941406 128.39910889 C-73.08275314 128.35913783 -78.01597504 128.30801411 -82.94921875 128.2578125 C-92.63273031 128.16092342 -102.31630788 128.07656035 -112 128 C-112 131.63 -112 135.26 -112 139 C-100.12 139 -88.24 139 -76 139 C-76.92958603 143.64793016 -78.41215202 147.17787052 -80.5625 151.3125 C-80.89185547 151.95767578 -81.22121094 152.60285156 -81.56054688 153.26757812 C-82.36824255 154.84785228 -83.18337613 156.42432105 -84 158 C-83.27804443 157.86440674 -82.55608887 157.72881348 -81.81225586 157.58911133 C-76.59152691 157.03936198 -73.2562399 157.13746347 -68.84033203 160.16943359 C-65.53142755 163.13608488 -62.54911542 166.40226999 -59.5625 169.6875 C-58.50614436 170.80417249 -57.44691448 171.9181333 -56.38476562 173.02929688 C-54.43161304 175.07977028 -52.49685801 177.14453414 -50.58032227 179.22924805 C-48.11006863 181.88180822 -45.57798768 184.452491 -43 187 C-42.67 187.33 -42.34 187.66 -42 188 C-39.65012738 188.23527773 -37.29443961 188.41386417 -34.9375 188.5625 C-33.64714844 188.64628906 -32.35679687 188.73007813 -31.02734375 188.81640625 C-30.02832031 188.87699219 -29.02929688 188.93757812 -28 189 C-28 184.71 -28 180.42 -28 176 C-14.47 176 -0.94 176 13 176 C13 188.87 13 201.74 13 215 C-0.53 215 -14.06 215 -28 215 C-28 211.04 -28 207.08 -28 203 C-29.39992187 203.11601562 -30.79984375 203.23203125 -32.2421875 203.3515625 C-46.90908919 204.20517776 -46.90908919 204.20517776 -52.375 201.0546875 C-54.8699178 198.50519337 -56.94966623 195.91584352 -59 193 C-60.63482717 191.07536255 -62.30818079 189.1982238 -64.01025391 187.33300781 C-66 185 -66 185 -68.00341797 182.01611328 C-71.47720247 177.30629386 -75.01051609 173.70933329 -80.85296631 172.32305908 C-89.12570645 171.30784822 -97.43455064 171.56815335 -105.75 171.75 C-108.2968551 171.76198901 -110.84374187 171.76855017 -113.390625 171.76953125 C-119.59588168 171.78365824 -125.79609812 171.87162588 -132 172 C-132 175.63 -132 179.26 -132 183 C-118.47 183 -104.94 183 -91 183 C-89.02 189.93 -89.02 189.93 -87 197 C-85.70808372 200.37333695 -84.43227705 203.69357319 -83 207 C-107.23815301 220.63396107 -135.98592067 221.38540719 -163 221 C-163.26554687 220.13117188 -163.53109375 219.26234375 -163.8046875 218.3671875 C-164.15789062 217.21476563 -164.51109375 216.06234375 -164.875 214.875 C-165.22304687 213.73804688 -165.57109375 212.60109375 -165.9296875 211.4296875 C-166.91496533 208.27248336 -167.94272536 205.13372394 -169 202 C-169.66 202 -170.32 202 -171 202 C-171 201.34 -171 200.68 -171 200 C-178.4380285 196.03305147 -186.70699577 198.04883468 -194.5625 199.5625 C-200.66920087 200.71562525 -205.88256519 201.65896537 -212 200 C-215.18026445 197.36270753 -215.91034486 195.91448247 -216.3125 191.8125 C-215.93436613 187.19926682 -215.5042629 182.60139895 -215 178 C-218.96 175.525 -218.96 175.525 -223 173 C-222.5205537 168.78087253 -221.83374881 166.20336822 -219 163 C-220.175625 162.814375 -220.175625 162.814375 -221.375 162.625 C-224 162 -224 162 -226 160 C-225.98252112 157.40730017 -225.86231408 154.9474846 -225.625 152.375 C-225.56828125 151.66859375 -225.5115625 150.9621875 -225.453125 150.234375 C-225.31159079 148.48878639 -225.15702613 146.74426327 -225 145 C-229.91665794 142.13194953 -234.89084889 139.50975844 -240 137 C-240.67651422 131.09421372 -238.55721936 128.05070627 -235.375 123.375 C-234.4531008 121.96088793 -233.5351488 120.544195 -232.62109375 119.125 C-232.17233887 118.42890625 -231.72358398 117.7328125 -231.26123047 117.015625 C-225.79967346 108.28728302 -222.92648738 100.72070527 -222.82421875 90.34375 C-222.80037109 89.07273437 -222.77652344 87.80171875 -222.75195312 86.4921875 C-222.70949144 83.86213628 -222.67797006 81.2318822 -222.65820312 78.6015625 C-222.26105588 60.24042924 -216.39238762 44.71353001 -203.58984375 31.4296875 C-185.62113182 14.57216288 -162.42184467 9.1227341 -138.44384766 9.86816406 C-123.13949752 10.69377336 -102.24154834 16.35113298 -91.32714844 27.74658203 C-86.38067545 32.80799917 -82.59889311 33.91675324 -75.55883789 34.07446289 C-73.85908813 34.03760376 -73.85908813 34.03760376 -72.125 34 C-70.95767334 33.98509521 -69.79034668 33.97019043 -68.58764648 33.95483398 C-62.41611065 33.69389307 -57.77901897 33.42623869 -53.0625 29.0625 C-51.68964857 27.39016554 -50.33596429 25.70194684 -49 24 C-47.0161318 22.28949946 -44.99433127 20.62203276 -42.9375 19 C-39.87817781 16.60264533 -39.87817781 16.60264533 -37 14 C-34.26105915 13.91141354 -31.5474673 13.88476521 -28.80859375 13.90234375 C-27.98875504 13.9037587 -27.16891632 13.90517365 -26.32423401 13.90663147 C-23.69528618 13.91224711 -21.06642227 13.92480221 -18.4375 13.9375 C-16.65950643 13.94251299 -14.88151154 13.94707624 -13.10351562 13.95117188 C-8.73564455 13.96222161 -4.36783652 13.97949669 0 14 C0 9.38 0 4.76 0 0 Z " fill="#F6C812" transform="translate(244,5)"/>
<path d="M0 0 C52.47 0 104.94 0 159 0 C158.07041397 4.64793016 156.58784798 8.17787052 154.4375 12.3125 C154.10814453 12.95767578 153.77878906 13.60285156 153.43945312 14.26757812 C152.63175745 15.84785228 151.81662387 17.42432105 151 19 C152.08293335 18.79661011 152.08293335 18.79661011 153.18774414 18.58911133 C158.40847309 18.03936198 161.7437601 18.13746347 166.15966797 21.16943359 C169.46857245 24.13608488 172.45088458 27.40226999 175.4375 30.6875 C176.49385564 31.80417249 177.55308552 32.9181333 178.61523438 34.02929688 C180.56838696 36.07977028 182.50314199 38.14453414 184.41967773 40.22924805 C186.88993137 42.88180822 189.42201232 45.452491 192 48 C192.33 48.33 192.66 48.66 193 49 C195.34987262 49.23527773 197.70556039 49.41386417 200.0625 49.5625 C201.35285156 49.64628906 202.64320313 49.73007813 203.97265625 49.81640625 C205.47119141 49.90728516 205.47119141 49.90728516 207 50 C207 45.71 207 41.42 207 37 C220.53 37 234.06 37 248 37 C248 49.87 248 62.74 248 76 C234.47 76 220.94 76 207 76 C207 72.04 207 68.08 207 64 C205.60007813 64.11601562 204.20015625 64.23203125 202.7578125 64.3515625 C188.09091081 65.20517776 188.09091081 65.20517776 182.625 62.0546875 C180.1300822 59.50519337 178.05033377 56.91584352 176 54 C174.36517283 52.07536255 172.69181921 50.1982238 170.98974609 48.33300781 C169 46 169 46 166.99658203 43.01611328 C163.52279753 38.30629386 159.98948391 34.70933329 154.14703369 33.32305908 C145.87429355 32.30784822 137.56544936 32.56815335 129.25 32.75 C126.7031449 32.76198901 124.15625813 32.76855017 121.609375 32.76953125 C115.40411832 32.78365824 109.20390188 32.87162588 103 33 C103 36.63 103 40.26 103 44 C116.53 44 130.06 44 144 44 C145.98 50.93 145.98 50.93 148 58 C149.29191628 61.37333695 150.56772295 64.69357319 152 68 C127.76184699 81.63396107 99.01407933 82.38540719 72 82 C71.73445313 81.13117188 71.46890625 80.26234375 71.1953125 79.3671875 C70.84210938 78.21476562 70.48890625 77.06234375 70.125 75.875 C69.77695313 74.73804688 69.42890625 73.60109375 69.0703125 72.4296875 C68.08503467 69.27248336 67.05727464 66.13372394 66 63 C65.34 63 64.68 63 64 63 C64 62.34 64 61.68 64 61 C56.5619715 57.03305147 48.29300423 59.04883468 40.4375 60.5625 C34.33079913 61.71562525 29.11743481 62.65896537 23 61 C19.81973555 58.36270753 19.08965514 56.91448247 18.6875 52.8125 C19.06563387 48.19926682 19.4957371 43.60139895 20 39 C17.36 37.35 14.72 35.7 12 34 C12.4794463 29.78087253 13.16625119 27.20336822 16 24 C15.21625 23.87625 14.4325 23.7525 13.625 23.625 C11 23 11 23 9 21 C9.01747888 18.40730017 9.13768592 15.9474846 9.375 13.375 C9.43171875 12.66859375 9.4884375 11.9621875 9.546875 11.234375 C9.68840921 9.48878639 9.84297387 7.74426327 10 6 C8.906875 5.38125 7.81375 4.7625 6.6875 4.125 C4.3837744 2.82100438 2.20837951 1.47225301 0 0 Z " fill="#309DD8" transform="translate(9,144)"/>
<path d="M0 0 C23.76 0 47.52 0 72 0 C72 3.63 72 7.26 72 11 C100.38 11 128.76 11 158 11 C157 21 157 21 156 25 C157.87534424 24.9057373 157.87534424 24.9057373 159.78857422 24.80957031 C164.46540605 24.5909593 169.14179707 24.45413056 173.82226562 24.34082031 C175.84029256 24.28078304 177.85780417 24.19911564 179.87402344 24.09472656 C197.55326036 23.20289562 197.55326036 23.20289562 202.50439453 27.57958984 C205.12332653 30.44749398 207.07484536 33.63043122 209 37 C210.02732096 38.38575109 211.06621324 39.76313912 212.125 41.125 C214 44 214 44 214 46 C224.56 46 235.12 46 246 46 C246 41.05 246 36.1 246 31 C259.53 31 273.06 31 287 31 C287 44.53 287 58.06 287 72 C273.47 72 259.94 72 246 72 C246 68.04 246 64.08 246 60 C244.88665283 60.0942627 243.77330566 60.18852539 242.6262207 60.28564453 C211.77557589 62.67975444 211.77557589 62.67975444 203.90917969 58.265625 C199.60890586 54.18768564 196.91802947 49.38388617 194.80151367 43.87939453 C194.05586318 41.80717235 194.05586318 41.80717235 192 40 C189.38193514 39.78260024 186.86642154 39.68860584 184.24560547 39.68115234 C183.04547821 39.66608391 183.04547821 39.66608391 181.82110596 39.65071106 C179.16980729 39.61975729 176.51861014 39.60281028 173.8671875 39.5859375 C172.03157673 39.56723564 170.19597464 39.54766297 168.36038208 39.5272522 C163.52383534 39.47582118 158.68726068 39.43625433 153.85058594 39.39910889 C148.91724686 39.35913783 143.98402496 39.30801411 139.05078125 39.2578125 C129.36726969 39.16092342 119.68369212 39.07656035 110 39 C110 42.63 110 46.26 110 50 C93.75384356 50.04627115 77.50771423 50.08197549 61.26150799 50.10362434 C53.71834255 50.11394285 46.17521878 50.12801412 38.63208008 50.15087891 C32.05851473 50.17079525 25.48497956 50.18371226 18.91138488 50.18817699 C15.42977878 50.19078736 11.948259 50.1969347 8.46668053 50.21146011 C4.58283224 50.22753283 0.69906888 50.22798081 -3.18481445 50.22705078 C-4.92189919 50.23783661 -4.92189919 50.23783661 -6.69407654 50.24884033 C-7.74996979 50.246091 -8.80586304 50.24334167 -9.89375305 50.24050903 C-10.81278066 50.24235262 -11.73180826 50.24419621 -12.67868519 50.24609566 C-15 50 -15 50 -18 48 C-19.03198284 42.26488226 -16.45364622 38.90209891 -13.375 34.375 C-12.45228429 32.95014161 -11.53302411 31.52303969 -10.6171875 30.09375 C-9.94381348 29.04767578 -9.94381348 29.04767578 -9.25683594 27.98046875 C-3.25698625 18.52616016 -1.66503333 11.65523334 0 0 Z " fill="#D91E8C" transform="translate(22,94)"/>
<path d="M0 0 C13.53 0 27.06 0 41 0 C41 13.53 41 27.06 41 41 C27.47 41 13.94 41 0 41 C0 36.71 0 32.42 0 28 C-20.10267333 26.26964155 -20.10267333 26.26964155 -38.05371094 32.61401367 C-39.70821958 34.42779781 -41.16891989 36.37223911 -42.63562965 38.33913422 C-46.71872057 43.30953394 -51.03485726 47.37975674 -57.46889114 48.72561646 C-61.60857433 48.98263727 -65.67916856 48.99186283 -69.82275391 48.90820312 C-71.40056238 48.90594272 -72.97837925 48.90722065 -74.55618286 48.91174316 C-78.81240282 48.91402614 -83.06679643 48.86720017 -87.32259417 48.8111515 C-91.78010168 48.76093004 -96.23765727 48.75642518 -100.69540405 48.74694824 C-109.12447238 48.72214463 -117.55270449 48.65657992 -125.98140562 48.57615232 C-135.58230367 48.48654035 -145.18324297 48.44269894 -154.78445554 48.40258884 C-174.52343597 48.31910753 -194.26166518 48.17851481 -214 48 C-212.4126153 38.73013597 -204.35047165 31.44799663 -197 26 C-176.38133691 11.99836614 -152.40190778 6.67119956 -127.75 11.125 C-115.61616818 13.72164001 -100.06840056 18.62006165 -91.32714844 27.74658203 C-86.38067545 32.80799917 -82.59889311 33.91675324 -75.55883789 34.07446289 C-73.85908813 34.03760376 -73.85908813 34.03760376 -72.125 34 C-70.95767334 33.98509521 -69.79034668 33.97019043 -68.58764648 33.95483398 C-62.41611065 33.69389307 -57.77901897 33.42623869 -53.0625 29.0625 C-51.68964857 27.39016554 -50.33596429 25.70194684 -49 24 C-47.0161318 22.28949946 -44.99433127 20.62203276 -42.9375 19 C-39.87817781 16.60264533 -39.87817781 16.60264533 -37 14 C-34.26105915 13.91141354 -31.5474673 13.88476521 -28.80859375 13.90234375 C-27.98875504 13.9037587 -27.16891632 13.90517365 -26.32423401 13.90663147 C-23.69528618 13.91224711 -21.06642227 13.92480221 -18.4375 13.9375 C-16.65950643 13.94251299 -14.88151154 13.94707624 -13.10351562 13.95117188 C-8.73564455 13.96222161 -4.36783652 13.97949669 0 14 C0 9.38 0 4.76 0 0 Z " fill="#31479B" transform="translate(244,5)"/>
<path d="M0 0 C29.7 0 59.4 0 90 0 C90 3.63 90 7.26 90 11 C103.53 11 117.06 11 131 11 C132.98 17.93 132.98 17.93 135 25 C136.29191628 28.37333695 137.56772295 31.69357319 139 35 C114.76184699 48.63396107 86.01407933 49.38540719 59 49 C58.60167969 47.69675781 58.60167969 47.69675781 58.1953125 46.3671875 C57.66550781 44.63855469 57.66550781 44.63855469 57.125 42.875 C56.77695313 41.73804688 56.42890625 40.60109375 56.0703125 39.4296875 C55.08503467 36.27248336 54.05727464 33.13372394 53 30 C52.34 30 51.68 30 51 30 C51 29.34 51 28.68 51 28 C43.5619715 24.03305147 35.29300423 26.04883468 27.4375 27.5625 C21.33079913 28.71562525 16.11743481 29.65896537 10 28 C6.81973555 25.36270753 6.08965514 23.91448247 5.6875 19.8125 C6.06550919 15.20078788 6.48189604 10.59817264 7 6 C3.535 4.02 3.535 4.02 0 2 C0 1.34 0 0.68 0 0 Z " fill="#713E96" transform="translate(22,177)"/>
<path d="M0 0 C5.79788699 -0.29866278 11.5912253 -0.51526017 17.39501953 -0.65917969 C19.3645633 -0.71920511 21.33357942 -0.80086405 23.30126953 -0.90527344 C40.55191888 -1.79709616 40.55191888 -1.79709616 45.47314453 2.57958984 C48.09098023 5.45193501 50.05871172 8.63666882 52 12 C53.02808958 13.38518095 54.06710812 14.76244387 55.125 16.125 C57 19 57 19 57 21 C67.56 21 78.12 21 89 21 C89 16.05 89 11.1 89 6 C102.53 6 116.06 6 130 6 C130 19.53 130 33.06 130 47 C116.47 47 102.94 47 89 47 C89 43.04 89 39.08 89 35 C87.88665283 35.0942627 86.77330566 35.18852539 85.6262207 35.28564453 C54.77557589 37.67975444 54.77557589 37.67975444 46.90917969 33.265625 C42.60890586 29.18768564 39.91802947 24.38388617 37.80151367 18.87939453 C37.05586318 16.80717235 37.05586318 16.80717235 35 15 C32.38193514 14.78260024 29.86642154 14.68860584 27.24560547 14.68115234 C26.44552063 14.67110672 25.64543579 14.6610611 24.82110596 14.65071106 C22.16980729 14.61975729 19.51861014 14.60281028 16.8671875 14.5859375 C15.03157673 14.56723564 13.19597464 14.54766297 11.36038208 14.5272522 C6.52383534 14.47582118 1.68726068 14.43625433 -3.14941406 14.39910889 C-8.08275314 14.35913783 -13.01597504 14.30801411 -17.94921875 14.2578125 C-27.63273031 14.16092342 -37.31630788 14.07656035 -47 14 C-47 17.63 -47 21.26 -47 25 C-63.24615644 25.04627115 -79.49228577 25.08197549 -95.73849201 25.10362434 C-103.28165745 25.11394285 -110.82478122 25.12801412 -118.36791992 25.15087891 C-124.94148527 25.17079525 -131.51502044 25.18371226 -138.08861512 25.18817699 C-141.57022122 25.19078736 -145.051741 25.1969347 -148.53331947 25.21146011 C-152.41716776 25.22753283 -156.30093112 25.22798081 -160.18481445 25.22705078 C-161.92189919 25.23783661 -161.92189919 25.23783661 -163.69407654 25.24884033 C-164.74996979 25.246091 -165.80586304 25.24334167 -166.89375305 25.24050903 C-167.81278066 25.24235262 -168.73180826 25.24419621 -169.67868519 25.24609566 C-172 25 -172 25 -175 23 C-175.45892595 19.48156769 -175.41140736 17.65139498 -173.5 14.625 C-173.005 14.08875 -172.51 13.5525 -172 13 C-172.33 15.97 -172.66 18.94 -173 22 C-131.75 22.33 -90.5 22.66 -48 23 C-48 19.7 -48 16.4 -48 13 C-46.23417637 11.23417637 -43.89628001 11.88014439 -41.54483032 11.87557983 C-40.37203018 11.88097275 -40.37203018 11.88097275 -39.17553711 11.88647461 C-38.35609116 11.88632858 -37.5366452 11.88618256 -36.69236755 11.8860321 C-33.97066647 11.88673148 -31.24903295 11.89452499 -28.52734375 11.90234375 C-26.64547259 11.90420784 -24.76360094 11.90563179 -22.88172913 11.90663147 C-17.91851471 11.91045733 -12.95532936 11.92028819 -7.99212646 11.93133545 C-2.93160394 11.9415481 2.12892327 11.94612878 7.18945312 11.95117188 C17.12631488 11.9619104 27.06315503 11.97898764 37 12 C37 12.99 37 13.98 37 15 C37.99 14.34 38.98 13.68 40 13 C40 12.01 40 11.02 40 10 C41.32 9.34 42.64 8.68 44 8 C43.01 6.02 42.02 4.04 41 2 C20.705 1.505 20.705 1.505 0 1 C0 0.67 0 0.34 0 0 Z " fill="#D71E8C" transform="translate(179,119)"/>
<path d="M0 0 C4.91983288 3.99736422 9.09613747 8.21705767 13.203125 13.046875 C16.94656052 17.11582666 19.84915507 17.33114615 25.1875 17.625 C27.09595703 17.73714844 27.09595703 17.73714844 29.04296875 17.8515625 C30.01878906 17.90054688 30.99460938 17.94953125 32 18 C32 13.71 32 9.42 32 5 C45.53 5 59.06 5 73 5 C73 17.87 73 30.74 73 44 C59.47 44 45.94 44 32 44 C32 40.04 32 36.08 32 32 C30.60007813 32.11601562 29.20015625 32.23203125 27.7578125 32.3515625 C13.09091081 33.20517776 13.09091081 33.20517776 7.625 30.0546875 C5.13000789 27.50511744 3.05122063 24.91533403 1 22 C-0.12992759 20.6737821 -1.274801 19.36008287 -2.4375 18.0625 C-2.97375 17.43472656 -3.51 16.80695313 -4.0625 16.16015625 C-8.17031909 11.58026924 -12.61557451 7.31306956 -17 3 C-16.34 2.67 -15.68 2.34 -15 2 C-14.484375 2.5775 -13.96875 3.155 -13.4375 3.75 C-10.49152537 6.46936119 -7.52566329 8.10156592 -4 10 C-4 9.34 -4 8.68 -4 8 C-3.34 8 -2.68 8 -2 8 C-2 7.01 -2 6.02 -2 5 C-1.34 5 -0.68 5 0 5 C0 3.35 0 1.7 0 0 Z " fill="#309ED8" transform="translate(184,176)"/>
<path d="M0 0 C1.1970499 3.59497415 0.88182 6.56216639 0.44140625 10.296875 C0.30283203 11.50214844 0.16425781 12.70742187 0.02148438 13.94921875 C-0.12998047 15.20347656 -0.28144531 16.45773438 -0.4375 17.75 C-0.58509766 19.01972656 -0.73269531 20.28945312 -0.88476562 21.59765625 C-1.2501138 24.73257931 -1.6221004 27.86656931 -2 31 C-1.35414444 30.98747192 -0.70828888 30.97494385 -0.04286194 30.96203613 C43.22341619 30.13722631 86.48731163 29.88791891 129.76056296 29.87716937 C134.62869795 29.87587635 139.49682692 29.87210966 144.36495972 29.86743164 C150.99756325 29.86130488 157.63014823 29.86134289 164.26275444 29.86568069 C166.74479599 29.86668142 169.22683873 29.86608086 171.70887947 29.86384201 C175.11844334 29.86131297 178.52794107 29.8650648 181.9375 29.87060547 C183.45745528 29.86756535 183.45745528 29.86756535 185.00811672 29.86446381 C185.92196164 29.86728615 186.83580656 29.87010849 187.77734375 29.87301636 C188.57390381 29.87339338 189.37046387 29.87377041 190.19116211 29.87415886 C192 30 192 30 193 31 C193.33 35.29 193.66 39.58 194 44 C212.315 44.495 212.315 44.495 231 45 C231 32.13 231 19.26 231 6 C218.79 6.33 206.58 6.66 194 7 C194 10.63 194 14.26 194 18 C192 20 192 20 188.28466797 20.22705078 C186.68713948 20.22673351 185.08958973 20.21539982 183.4921875 20.1953125 C182.65156769 20.1924826 181.81094788 20.18965271 180.94485474 20.18673706 C178.25475954 20.1755243 175.5649949 20.15041803 172.875 20.125 C171.05339022 20.1149716 169.23177523 20.10584551 167.41015625 20.09765625 C162.93997642 20.07558142 158.47004429 20.04104434 154 20 C154.33 19.01 154.66 18.02 155 17 C166.88 17.33 178.76 17.66 191 18 C191 13.71 191 9.42 191 5 C204.86 5 218.72 5 233 5 C233 18.53 233 32.06 233 46 C219.14 46 205.28 46 191 46 C191 41.38 191 36.76 191 32 C189.63145874 32.01252808 188.26291748 32.02505615 186.85290527 32.03796387 C169.40198186 32.19716921 151.95101071 32.35070163 134.5 32.5 C133.80554811 32.50594854 133.11109621 32.51189708 132.39560032 32.51802588 C96.72223378 32.82324321 61.05001272 33.10317846 25.375 33.0625 C24.61847137 33.06164398 23.86194275 33.06078796 23.08248901 33.05990601 C14.38829879 33.04927298 5.6941451 33.0305912 -3 33 C-3.04390106 29.47660238 -3.07033189 25.9532761 -3.09375 22.4296875 C-3.10631836 21.43799561 -3.11888672 20.44630371 -3.13183594 19.42456055 C-3.16647912 12.46994074 -2.6167006 6.51060031 0 0 Z " fill="#EBC834" transform="translate(25,61)"/>
<path d="M0 0 C5.79788699 -0.29866278 11.5912253 -0.51526017 17.39501953 -0.65917969 C19.3645633 -0.71920511 21.33357942 -0.80086405 23.30126953 -0.90527344 C40.55191888 -1.79709616 40.55191888 -1.79709616 45.47314453 2.57958984 C48.09098023 5.45193501 50.05871172 8.63666882 52 12 C53.02808958 13.38518095 54.06710812 14.76244387 55.125 16.125 C57 19 57 19 57 21 C67.23 21 77.46 21 88 21 C88 21.33 88 21.66 88 22 C83.4793335 22.02468857 78.9587061 22.04285449 74.43798828 22.05493164 C72.89956987 22.05996552 71.36115625 22.06679308 69.82275391 22.07543945 C67.61359474 22.08754639 65.40449874 22.09323769 63.1953125 22.09765625 C62.50567413 22.10281754 61.81603577 22.10797882 61.10549927 22.11329651 C56.22774341 22.11387171 56.22774341 22.11387171 54 21 C54 20.01 54 19.02 54 18 C52.68 17.67 51.36 17.34 50 17 C49.67 17.66 49.34 18.32 49 19 C48.34 19.66 47.68 20.32 47 21 C46.35232207 23.57061311 46.35232207 23.57061311 46 26 C46.99 26.33 47.98 26.66 49 27 C48.67 28.32 48.34 29.64 48 31 C44.84558358 28.01570941 42.328225 24.84773081 39.8125 21.3125 C37.57500239 18.01781999 37.57500239 18.01781999 35 15 C32.44500691 14.87497358 29.91569358 14.81395823 27.35913086 14.79467773 C26.55919205 14.78477814 25.75925323 14.77487854 24.93507385 14.76467896 C22.27836108 14.73297082 19.6216304 14.70826992 16.96484375 14.68359375 C15.12780785 14.66303225 13.29077676 14.642036 11.45375061 14.62062073 C6.60895682 14.56531696 1.76411975 14.51594445 -3.08074951 14.46777344 C-8.02066925 14.41761889 -12.96052583 14.36190134 -17.90039062 14.30664062 C-27.60020651 14.19895754 -37.30007714 14.09753527 -47 14 C-47 17.63 -47 21.26 -47 25 C-63.24615644 25.04627115 -79.49228577 25.08197549 -95.73849201 25.10362434 C-103.28165745 25.11394285 -110.82478122 25.12801412 -118.36791992 25.15087891 C-124.94148527 25.17079525 -131.51502044 25.18371226 -138.08861512 25.18817699 C-141.57022122 25.19078736 -145.051741 25.1969347 -148.53331947 25.21146011 C-152.41716776 25.22753283 -156.30093112 25.22798081 -160.18481445 25.22705078 C-161.92189919 25.23783661 -161.92189919 25.23783661 -163.69407654 25.24884033 C-164.74996979 25.246091 -165.80586304 25.24334167 -166.89375305 25.24050903 C-167.81278066 25.24235262 -168.73180826 25.24419621 -169.67868519 25.24609566 C-172 25 -172 25 -175 23 C-175.45892595 19.48156769 -175.41140736 17.65139498 -173.5 14.625 C-173.005 14.08875 -172.51 13.5525 -172 13 C-172.33 15.97 -172.66 18.94 -173 22 C-131.75 22.33 -90.5 22.66 -48 23 C-48 19.7 -48 16.4 -48 13 C-46.23417637 11.23417637 -43.89628001 11.88014439 -41.54483032 11.87557983 C-40.37203018 11.88097275 -40.37203018 11.88097275 -39.17553711 11.88647461 C-38.35609116 11.88632858 -37.5366452 11.88618256 -36.69236755 11.8860321 C-33.97066647 11.88673148 -31.24903295 11.89452499 -28.52734375 11.90234375 C-26.64547259 11.90420784 -24.76360094 11.90563179 -22.88172913 11.90663147 C-17.91851471 11.91045733 -12.95532936 11.92028819 -7.99212646 11.93133545 C-2.93160394 11.9415481 2.12892327 11.94612878 7.18945312 11.95117188 C17.12631488 11.9619104 27.06315503 11.97898764 37 12 C37 12.99 37 13.98 37 15 C37.99 14.34 38.98 13.68 40 13 C40 12.01 40 11.02 40 10 C41.32 9.34 42.64 8.68 44 8 C43.01 6.02 42.02 4.04 41 2 C20.705 1.505 20.705 1.505 0 1 C0 0.67 0 0.34 0 0 Z " fill="#BB3D98" transform="translate(179,119)"/>
<path d="M0 0 C40.59 0 81.18 0 123 0 C123 0.33 123 0.66 123 1 C121.68312698 1.01030746 120.36625397 1.02061493 119.00947571 1.03123474 C106.60527609 1.12894841 94.20112687 1.23168067 81.79700947 1.33933926 C75.41978488 1.39452721 69.04255567 1.4479407 62.6652832 1.49731445 C56.51204122 1.54501875 50.35885468 1.5973639 44.20567894 1.65294075 C41.85693936 1.67333678 39.50818458 1.69205439 37.15941811 1.70907402 C33.87225476 1.73317882 30.58519581 1.76322529 27.2980957 1.79467773 C26.3248938 1.8004332 25.35169189 1.80618866 24.34899902 1.81211853 C23.45022537 1.82190735 22.55145172 1.83169617 21.6254425 1.84178162 C20.84837102 1.84823417 20.07129953 1.85468672 19.27068043 1.8613348 C16.77729333 2.01360018 14.43637589 2.45990766 12 3 C12.08378906 3.71285156 12.16757812 4.42570313 12.25390625 5.16015625 C12.84189161 10.69019573 13.09194306 15.54028471 12 21 C14.31 21.66 16.62 22.32 19 23 C17.68 25.31 16.36 27.62 15 30 C85.785 30.495 85.785 30.495 158 31 C157.67 31.99 157.34 32.98 157 34 C109.15 34 61.3 34 12 34 C13.125 27.25 13.125 27.25 16 24 C15.21625 23.87625 14.4325 23.7525 13.625 23.625 C11 23 11 23 9 21 C9.01747888 18.40730017 9.13768592 15.9474846 9.375 13.375 C9.43171875 12.66859375 9.4884375 11.9621875 9.546875 11.234375 C9.68840921 9.48878639 9.84297387 7.74426327 10 6 C8.906875 5.38125 7.81375 4.7625 6.6875 4.125 C4.3837744 2.82100438 2.20837951 1.47225301 0 0 Z " fill="#5890CA" transform="translate(9,144)"/>
<path d="M0 0 C13.53 0 27.06 0 41 0 C41 12.87 41 25.74 41 39 C27.47 39 13.94 39 0 39 C0 35.04 0 31.08 0 27 C2 29 2 29 2 37 C7.28 37 12.56 37 18 37 C18.66 35.02 19.32 33.04 20 31 C16.7 30.34 13.4 29.68 10 29 C10.14086602 26.39547729 10.28748464 23.79149803 10.4375 21.1875 C10.49647461 20.08051758 10.49647461 20.08051758 10.55664062 18.95117188 C10.74381035 15.76928658 10.98720793 13.03837622 12 10 C17.28 10 22.56 10 28 10 C28 10.66 28 11.32 28 12 C23.05 12 18.1 12 13 12 C13 17.28 13 22.56 13 28 C18.28 28 23.56 28 29 28 C29 23.05 29 18.1 29 13 C29.66 13.33 30.32 13.66 31 14 C31.02685095 16.47923801 31.04676547 18.9581884 31.0625 21.4375 C31.07087891 22.14455078 31.07925781 22.85160156 31.08789062 23.58007812 C31.09653588 25.38693559 31.05220011 27.19387603 31 29 C30.67 29.33 30.34 29.66 30 30 C32.8684413 32.10232344 32.8684413 32.10232344 36 33 C36 33.99 36 34.98 36 36 C36.66 35.67 37.32 35.34 38 35 C38.33 23.78 38.66 12.56 39 1 C20.19 1.495 20.19 1.495 1 2 C1 5.63 1 9.26 1 13 C0.67 13 0.34 13 0 13 C0 8.71 0 4.42 0 0 Z " fill="#3E9BCB" transform="translate(216,181)"/>
<path d="M0 0 C1.24074783 -0.00014603 2.48149567 -0.00029205 3.75984192 -0.0004425 C7.11223686 0.00012848 10.46456766 0.00509004 13.81695127 0.01213145 C17.3389539 0.01844844 20.86095767 0.01897531 24.38296509 0.02015686 C31.03008393 0.02324585 37.67718603 0.03142594 44.32429755 0.04150635 C51.90125927 0.05274368 59.47822185 0.058197 67.05518985 0.06320179 C82.62095002 0.07361101 98.18669354 0.09116259 113.75244141 0.11352539 C113.75244141 0.77352539 113.75244141 1.43352539 113.75244141 2.11352539 C120.02244141 2.11352539 126.29244141 2.11352539 132.75244141 2.11352539 C132.75244141 2.44352539 132.75244141 2.77352539 132.75244141 3.11352539 C79.95244141 3.11352539 27.15244141 3.11352539 -27.24755859 3.11352539 C-27.24755859 2.45352539 -27.24755859 1.79352539 -27.24755859 1.11352539 C-18.14720714 0.36090402 -9.12989977 -0.02886407 0 0 Z " fill="#3C477A" transform="translate(57.24755859375,49.886474609375)"/>
<path d="M0 0 C13.86 0 27.72 0 42 0 C42 13.53 42 27.06 42 41 C28.14 41 14.28 41 0 41 C0 36.38 0 31.76 0 27 C0.33 27 0.66 27 1 27 C1.06058594 27.78246094 1.12117188 28.56492187 1.18359375 29.37109375 C1.26738281 30.38300781 1.35117188 31.39492187 1.4375 32.4375 C1.51871094 33.44683594 1.59992188 34.45617187 1.68359375 35.49609375 C1.73211468 37.93640779 1.73211468 37.93640779 3 39 C5.73678648 39.16009163 8.45187918 39.25954421 11.19140625 39.31640625 C11.91775269 39.33505737 12.64409912 39.3537085 13.39245605 39.3729248 C16.11567581 39.4414201 18.83910333 39.50144241 21.5625 39.5625 C27.646875 39.706875 33.73125 39.85125 40 40 C40 27.13 40 14.26 40 1 C27.79 1.33 15.58 1.66 3 2 C3 5.63 3 9.26 3 13 C1 15 1 15 -2.71533203 15.22705078 C-4.31286052 15.22673351 -5.91041027 15.21539982 -7.5078125 15.1953125 C-8.76874222 15.19106766 -8.76874222 15.19106766 -10.05514526 15.18673706 C-12.74524046 15.1755243 -15.4350051 15.15041803 -18.125 15.125 C-19.94660978 15.1149716 -21.76822477 15.10584551 -23.58984375 15.09765625 C-28.06002358 15.07558142 -32.52995571 15.04104434 -37 15 C-36.67 14.01 -36.34 13.02 -36 12 C-24.12 12.33 -12.24 12.66 0 13 C0 8.71 0 4.42 0 0 Z " fill="#E8CA42" transform="translate(216,66)"/>
<path d="M0 0 C0.99 0.33 1.98 0.66 3 1 C5.87438548 1.15413876 8.72898986 1.25747285 11.60546875 1.31640625 C12.86427605 1.3475779 12.86427605 1.3475779 14.14851379 1.37937927 C16.82809294 1.44474018 19.50776969 1.50369714 22.1875 1.5625 C24.00456737 1.60569802 25.82162488 1.64931273 27.63867188 1.69335938 C32.09234799 1.8004078 36.54612226 1.90171319 41 2 C42.64769027 5.29538054 42.20603431 8.96175062 42.23828125 12.5859375 C42.246353 13.43926666 42.25442474 14.29259583 42.26274109 15.17178345 C42.27658148 16.97908496 42.28730384 18.7864126 42.29516602 20.59375 C42.31238952 23.35727413 42.35627592 26.11960516 42.40039062 28.8828125 C42.41051666 30.63801203 42.41903304 32.39322173 42.42578125 34.1484375 C42.44328934 34.97459564 42.46079742 35.80075378 42.47883606 36.65194702 C42.46464728 40.40603846 42.38198697 42.41709038 40.28588867 45.61572266 C38 47 38 47 35.74536133 46.75610352 C34.83939209 46.50658936 33.93342285 46.2570752 33 46 C30.34836945 45.91839247 27.72474527 45.88328805 25.07421875 45.90234375 C24.32662796 45.9037587 23.57903717 45.90517365 22.80879211 45.90663147 C20.43498635 45.91220236 18.06127697 45.9247494 15.6875 45.9375 C14.07226699 45.94251877 12.4570325 45.94708101 10.84179688 45.95117188 C6.89449445 45.96216225 2.94726353 45.97940668 -1 46 C-1 45.01 -1 44.02 -1 43 C12.53 43 26.06 43 40 43 C40 30.13 40 17.26 40 4 C26.47 4 12.94 4 -1 4 C-0.67 2.68 -0.34 1.36 0 0 Z " fill="#C4E9F8" transform="translate(217,177)"/>
<path d="M0 0 C13.53 0 27.06 0 41 0 C41 13.53 41 27.06 41 41 C27.47 41 13.94 41 0 41 C0 37.04 0 33.08 0 29 C-12.87 29 -25.74 29 -39 29 C-39.66 27.68 -40.32 26.36 -41 25 C-40.25568726 25.23879883 -40.25568726 25.23879883 -39.49633789 25.48242188 C-36.03028871 26.20105505 -32.58432236 26.21617641 -29.05859375 26.28125 C-28.29450699 26.29965942 -27.53042023 26.31806885 -26.74317932 26.33703613 C-23.48232611 26.415492 -20.22127457 26.48347021 -16.96020508 26.55224609 C-14.57623281 26.60402511 -12.19243361 26.66124326 -9.80859375 26.71875 C-8.70226845 26.73911316 -8.70226845 26.73911316 -7.57359314 26.7598877 C-4.46693648 26.83542065 -1.96862818 27.01045727 1 28 C1 31.96 1 35.92 1 40 C13.54 40 26.08 40 39 40 C39 27.46 39 14.92 39 2 C20.19 1.505 20.19 1.505 1 1 C1 5.29 1 9.58 1 14 C0.67 14 0.34 14 0 14 C0 9.38 0 4.76 0 0 Z " fill="#B93584" transform="translate(268,125)"/>
<path d="M0 0 C2.25 0.125 2.25 0.125 5 1 C6.40113616 2.95309888 7.73339467 4.95708818 9 7 C12.34305973 10.25083739 15.18060343 10.45903017 19.75 10.6875 C20.92046875 10.75324219 22.0909375 10.81898438 23.296875 10.88671875 C24.18890625 10.92410156 25.0809375 10.96148437 26 11 C26 12.32 26 13.64 26 15 C22.91111478 17.05925681 22.29064073 17.2390374 18.8125 17.125 C17.554375 17.08375 16.29625 17.0425 15 17 C15.33 17.99 15.66 18.98 16 20 C15 21 15 21 11.4375 21.0625 C10.303125 21.041875 9.16875 21.02125 8 21 C8 20.34 8 19.68 8 19 C7.195625 18.731875 6.39125 18.46375 5.5625 18.1875 C4.716875 17.795625 3.87125 17.40375 3 17 C2.67 16.01 2.34 15.02 2 14 C-0.01508358 13.26676204 -0.01508358 13.26676204 -2 13 C-2.6875 10.75 -2.6875 10.75 -3 8 C-2.04701223 6.63266972 -1.04625409 5.29735507 0 4 C0 2.68 0 1.36 0 0 Z " fill="#2F9ED8" transform="translate(189,185)"/>
<path d="M0 0 C5.28 0 10.56 0 16 0 C16 5.61 16 11.22 16 17 C10.72 17 5.44 17 0 17 C0 11.39 0 5.78 0 0 Z " fill="#FCFDF5" transform="translate(229,78)"/>
<path d="M0 0 C40.26 0 80.52 0 122 0 C122 4.62 122 9.24 122 14 C120 11 120 11 119 3 C79.73 2.67 40.46 2.34 0 2 C0 1.34 0 0.68 0 0 Z " fill="#FEF7BA" transform="translate(94,93)"/>
<path d="M0 0 C5.28 0 10.56 0 16 0 C16 5.28 16 10.56 16 16 C10.72 16 5.44 16 0 16 C0 10.72 0 5.44 0 0 Z " fill="#FCFDFC" transform="translate(229,193)"/>
<path d="M0 0 C5.28 0 10.56 0 16 0 C16 5.28 16 10.56 16 16 C10.72 16 5.44 16 0 16 C0 10.72 0 5.44 0 0 Z " fill="#FCFCFD" transform="translate(280,137)"/>
<path d="M0 0 C0.33 0 0.66 0 1 0 C1 2.97 1 5.94 1 9 C18.16 9 35.32 9 53 9 C53 9.66 53 10.32 53 11 C53.99 11 54.98 11 56 11 C56.495 16.94 56.495 16.94 57 23 C68.22 23 79.44 23 91 23 C91 19.37 91 15.74 91 12 C91.33 12 91.66 12 92 12 C92 16.29 92 20.58 92 25 C80.12 25 68.24 25 56 25 C53 16 53 16 52 11 C34.84 11 17.68 11 0 11 C0 7.37 0 3.74 0 0 Z " fill="#FEF6B9" transform="translate(124,54)"/>
<path d="M0 0 C7.48291572 6.15034169 7.48291572 6.15034169 10 10 C8.68 10 7.36 10 6 10 C6.061875 10.763125 6.12375 11.52625 6.1875 12.3125 C5.96270208 15.53460351 5.23215157 15.86085475 3 18 C3 19.32 3 20.64 3 22 C3.61657471 22.09273193 4.23314941 22.18546387 4.8684082 22.28100586 C7.55047306 23.18567669 7.83551312 24.04058948 9.10546875 26.50390625 C10.705556 28.90189223 11.47412627 29.84550411 14.27197266 30.66748047 C16.97180332 30.91217965 19.60199509 30.97006437 22.3125 30.9375 C23.70952148 30.96166992 23.70952148 30.96166992 25.13476562 30.98632812 C27.4246794 31.02155757 29.71008496 31.02514292 32 31 C32 31.33 32 31.66 32 32 C13.82812819 33.63010167 13.82812819 33.63010167 7.625 30.0546875 C5.13000789 27.50511744 3.05122063 24.91533403 1 22 C-0.12992759 20.6737821 -1.274801 19.36008287 -2.4375 18.0625 C-2.97375 17.43472656 -3.51 16.80695313 -4.0625 16.16015625 C-8.17031909 11.58026924 -12.61557451 7.31306956 -17 3 C-16.34 2.67 -15.68 2.34 -15 2 C-14.484375 2.5775 -13.96875 3.155 -13.4375 3.75 C-10.49152537 6.46936119 -7.52566329 8.10156592 -4 10 C-4 9.34 -4 8.68 -4 8 C-3.34 8 -2.68 8 -2 8 C-2 7.01 -2 6.02 -2 5 C-1.34 5 -0.68 5 0 5 C0 3.35 0 1.7 0 0 Z " fill="#389CD2" transform="translate(184,176)"/>
<path d="M0 0 C13.53 0 27.06 0 41 0 C41 13.53 41 27.06 41 41 C27.47 41 13.94 41 0 41 C0 37.37 0 33.74 0 30 C0.33 30 0.66 30 1 30 C1 33.3 1 36.6 1 40 C13.54 40 26.08 40 39 40 C39 27.46 39 14.92 39 2 C20.19 2.495 20.19 2.495 1 3 C1 6.3 1 9.6 1 13 C0.67 13 0.34 13 0 13 C0 8.71 0 4.42 0 0 Z " fill="#3D4A87" transform="translate(244,5)"/>
<path d="M0 0 C4.95 0 9.9 0 15 0 C15 4.95 15 9.9 15 15 C10.05 15 5.1 15 0 15 C0 10.05 0 5.1 0 0 Z " fill="#FAFDFD" transform="translate(257,18)"/>
<path d="M0 0 C28.38 0 56.76 0 86 0 C85 10 85 10 84 14 C83.34 14 82.68 14 82 14 C81.91615922 9.72412002 82.15271797 6.23641013 83 2 C55.94 2 28.88 2 1 2 C0.67 1.34 0.34 0.68 0 0 Z " fill="#BE2F85" transform="translate(94,105)"/>
<path d="M0 0 C2.51141186 10.04564745 -0.85650183 20.70851643 -2 31 C21.76 31 45.52 31 70 31 C69.67 31.66 69.34 32.32 69 33 C45.24 33 21.48 33 -3 33 C-3 7.46428571 -3 7.46428571 0 0 Z " fill="#F7A041" transform="translate(25,61)"/>
<path d="M0 0 C28.71 0 57.42 0 87 0 C87 4.29 87 8.58 87 13 C100.2 13 113.4 13 127 13 C127 13.66 127 14.32 127 15 C112.81 15 98.62 15 84 15 C84.58470535 10.32235723 85.22501574 5.64990555 86 1 C57.62 1 29.24 1 0 1 C0 0.67 0 0.34 0 0 Z " fill="#FCBBE6" transform="translate(94,104)"/>
<path d="M0 0 C23.43 0 46.86 0 71 0 C70.67 0.66 70.34 1.32 70 2 C47.56 2 25.12 2 2 2 C2 5.63 2 9.26 2 13 C1.34 13 0.68 13 0 13 C-0.12117188 13.74765625 -0.24234375 14.4953125 -0.3671875 15.265625 C-0.61855469 16.74289063 -0.61855469 16.74289063 -0.875 18.25 C-1.11863281 19.71179688 -1.11863281 19.71179688 -1.3671875 21.203125 C-2.59597609 26.63406718 -4.65960429 28.61237408 -9 32 C-10.76323505 34.12603185 -10.76323505 34.12603185 -12 36 C-12.66 35.67 -13.32 35.34 -14 35 C-13.38511719 34.07058594 -12.77023437 33.14117187 -12.13671875 32.18359375 C-11.32002451 30.93508417 -10.50363448 29.68637556 -9.6875 28.4375 C-9.28337891 27.82841797 -8.87925781 27.21933594 -8.46289062 26.59179688 C-2.60649701 17.59294815 -1.6292017 11.40441192 0 0 Z " fill="#C53571" transform="translate(22,94)"/>
<path d="M0 0 C17.16 0 34.32 0 52 0 C55.375 10.125 55.375 10.125 55 15 C53.68 15 52.36 15 51 15 C51 12.36 51 9.72 51 7 C50.01 6.67 49.02 6.34 48 6 C48.33 5.01 48.66 4.02 49 3 C24.745 2.505 24.745 2.505 0 2 C0 1.34 0 0.68 0 0 Z " fill="#EEC82E" transform="translate(124,65)"/>
<path d="M0 0 C10.60494907 -0.13904443 21.20968118 -0.24564352 31.81535625 -0.31087303 C36.74010612 -0.34218093 41.6642322 -0.38464368 46.58862305 -0.45263672 C51.34137407 -0.51784888 56.09352533 -0.55371012 60.84668922 -0.56926346 C62.65965022 -0.58034652 64.47257853 -0.6019899 66.28528404 -0.63438034 C68.82591941 -0.67797066 71.36407991 -0.68393337 73.9050293 -0.68115234 C74.65381348 -0.702724 75.40259766 -0.72429565 76.17407227 -0.746521 C79.09869851 -0.71190403 81.34056552 -0.56569145 83.61048317 1.38154221 C85.00593567 3.04257202 85.00593567 3.04257202 87 6 C86.01 6.33 85.02 6.66 84 7 C83.66348923 6.35315247 83.32697845 5.70630493 82.98027039 5.03985596 C80.56686376 2.55383086 78.93488327 2.48699089 75.54983521 2.37539673 C74.81256195 2.37107635 74.0752887 2.36675598 73.31567383 2.36230469 C72.5349501 2.34221344 71.75422638 2.32212219 70.94984436 2.30142212 C68.3689367 2.23963412 65.78844488 2.20565809 63.20703125 2.171875 C61.41766261 2.13446115 59.62832942 2.09531501 57.83903503 2.05450439 C53.12925093 1.95174686 48.41935233 1.87255905 43.70904541 1.79821777 C38.9027461 1.718209 34.09692528 1.61599223 29.29101562 1.515625 C19.86101294 1.32197149 10.43074043 1.15320654 1 1 C1 3.97 1 6.94 1 10 C0.67 10 0.34 10 0 10 C0 6.7 0 3.4 0 0 Z " fill="#FEE5FD" transform="translate(132,133)"/>
<path d="M0 0 C1.71703125 0.10054687 1.71703125 0.10054687 3.46875 0.203125 C6.5 0.75 6.5 0.75 8.3828125 1.82421875 C10.13590587 4.84615942 9.93276867 7.92019506 9.875 11.3125 C9.88660156 11.99763672 9.89820313 12.68277344 9.91015625 13.38867188 C9.8984375 15.37890625 9.8984375 15.37890625 9.5 18.75 C5.82731126 21.19845916 2.70849808 21.30193513 -1.5625 21.5625 C-2.66174805 21.65821289 -2.66174805 21.65821289 -3.78320312 21.75585938 C-5.91015625 21.89453125 -5.91015625 21.89453125 -9.5 21.75 C-12.05694972 17.91457543 -11.54045639 16.09097467 -11.125 11.5625 C-11.01414062 10.29019531 -10.90328125 9.01789063 -10.7890625 7.70703125 C-10.69367188 6.73121094 -10.59828125 5.75539062 -10.5 4.75 C-10.17 4.75 -9.84 4.75 -9.5 4.75 C-9.5 9.37 -9.5 13.99 -9.5 18.75 C-4.22 18.75 1.06 18.75 6.5 18.75 C6.5 13.47 6.5 8.19 6.5 2.75 C1.22 2.75 -4.06 2.75 -9.5 2.75 C-9.5 2.09 -9.5 1.43 -9.5 0.75 C-6.03733006 -0.40422331 -3.63251718 -0.24544035 0 0 Z " fill="#C63689" transform="translate(289.5,134.25)"/>
<path d="M0 0 C11.88 0 23.76 0 36 0 C35.04805076 4.75974622 33.76344557 7.62579797 31.4375 11.8125 C31.10814453 12.40998047 30.77878906 13.00746094 30.43945312 13.62304688 C29.63226733 15.08533998 28.81695083 16.5431399 28 18 C27.01 18 26.02 18 25 18 C25 17.34 25 16.68 25 16 C25.66 15.67 26.32 15.34 27 15 C27.04254356 13.00045254 27.04080783 10.99958364 27 9 C26.67 8.67 26.34 8.34 26 8 C26 5.69 26 3.38 26 1 C17.42 1 8.84 1 0 1 C0 0.67 0 0.34 0 0 Z " fill="#449FCF" transform="translate(132,144)"/>
<path d="M0 0 C0.66 1.32 1.32 2.64 2 4 C1.34 4.66 0.68 5.32 0 6 C-0.33 6.99 -0.66 7.98 -1 9 C-1.66 9 -2.32 9 -3 9 C-3 8.34 -3 7.68 -3 7 C-4.0725 7.639375 -5.145 8.27875 -6.25 8.9375 C-13.46536671 13.23896861 -22.84000069 13.25132878 -31 12 C-36.03251655 10.39032224 -40.52431818 7.78045527 -45 5 C-44.01 4.01 -43.02 3.02 -42 2 C-41.11054688 2.97195312 -40.22109375 3.94390625 -39.3046875 4.9453125 C-34.13707198 9.35428361 -28.64407153 8.95602801 -22.125 8.875 C-20.42537109 8.93494141 -20.42537109 8.93494141 -18.69140625 8.99609375 C-12.26043587 8.98864187 -8.57012725 8.28067298 -3.6796875 3.9453125 C-2.42370496 2.65827622 -1.18553363 1.35220729 0 0 Z " fill="#384683" transform="translate(194,30)"/>
<path d="M0 0 C5.28 0 10.56 0 16 0 C16 5.28 16 10.56 16 16 C10.72 16 5.44 16 0 16 C0 10.72 0 5.44 0 0 Z M3 2 C2.21052896 5.9473552 1.90797392 9.04287849 2 13 C5.9813783 14.3271261 9.85045227 14.06915913 14 14 C14 10.04 14 6.08 14 2 C10.37 2 6.74 2 3 2 Z " fill="#D4F7FE" transform="translate(229,193)"/>
<path d="M0 0 C5.28 0 10.56 0 16 0 C16 0.66 16 1.32 16 2 C11.05 2 6.1 2 1 2 C1 7.28 1 12.56 1 18 C6.28 18 11.56 18 17 18 C17 13.05 17 8.1 17 3 C17.66 3.33 18.32 3.66 19 4 C19 8.95 19 13.9 19 19 C12.07 19 5.14 19 -2 19 C-1.855625 16.421875 -1.71125 13.84375 -1.5625 11.1875 C-1.49784546 9.97549927 -1.49784546 9.97549927 -1.43188477 8.73901367 C-1.24715282 5.62590943 -0.99049694 2.97149083 0 0 Z " fill="#489CC3" transform="translate(228,191)"/>
<path d="M0 0 C13.86 0 27.72 0 42 0 C41.34 1.32 40.68 2.64 40 4 C39.1754834 3.83701416 38.3509668 3.67402832 37.50146484 3.50610352 C33.63621154 2.94741783 29.87040466 2.87414664 25.9765625 2.90234375 C25.23038666 2.9037587 24.48421082 2.90517365 23.71542358 2.90663147 C21.35190682 2.91219126 18.98848773 2.92473611 16.625 2.9375 C15.01432429 2.9425202 13.40364709 2.9470822 11.79296875 2.95117188 C7.86194201 2.96214749 3.93098752 2.97938404 0 3 C0 2.01 0 1.02 0 0 Z " fill="#D3F0F9" transform="translate(216,220)"/>
<path d="M0 0 C5.28 0 10.56 0 16 0 C16 5.61 16 11.22 16 17 C10.72 17 5.44 17 0 17 C0 11.39 0 5.78 0 0 Z M1 2 C1 6.29 1 10.58 1 15 C5.29 15 9.58 15 14 15 C14.0309375 12.0609375 14.0309375 12.0609375 14.0625 9.0625 C14.07410156 7.96035156 14.08570313 6.85820313 14.09765625 5.72265625 C14.31262571 3.08552366 14.31262571 3.08552366 13 2 C10.98035801 1.92755947 8.95832876 1.91622812 6.9375 1.9375 C3.9984375 1.9684375 3.9984375 1.9684375 1 2 Z " fill="#FBEFA5" transform="translate(229,78)"/>
<path d="M0 0 C1 2 1 2 0.2578125 4.42578125 C-0.11601562 5.37839844 -0.48984375 6.33101562 -0.875 7.3125 C-2.97650248 12.69851858 -4.07980259 17.52089193 -4.31640625 23.30078125 C-4.35830078 24.27724609 -4.40019531 25.25371094 -4.44335938 26.25976562 C-4.48267578 27.26716797 -4.52199219 28.27457031 -4.5625 29.3125 C-4.60568359 30.33923828 -4.64886719 31.36597656 -4.69335938 32.42382812 C-4.79906825 34.94909569 -4.90116468 37.47445562 -5 40 C-5.99 39.67 -6.98 39.34 -8 39 C-8.3690205 19.03189066 -8.3690205 19.03189066 -6 10 C-5.34 10 -4.68 10 -4 10 C-4.0825 9.0925 -4.165 8.185 -4.25 7.25 C-4 4 -4 4 -2 1.625 C-1.34 1.08875 -0.68 0.5525 0 0 Z " fill="#FEFAD4" transform="translate(27,54)"/>
<path d="M0 0 C5.28 0 10.56 0 16 0 C16 5.28 16 10.56 16 16 C10.72 16 5.44 16 0 16 C0 10.72 0 5.44 0 0 Z M2 2 C1.979375 3.794375 1.95875 5.58875 1.9375 7.4375 C1.92589844 8.44683594 1.91429687 9.45617187 1.90234375 10.49609375 C1.71387324 12.94021067 1.71387324 12.94021067 3 14 C5.01594582 14.23427778 7.038474 14.41336124 9.0625 14.5625 C11.021875 14.706875 12.98125 14.85125 15 15 C15 10.71 15 6.42 15 2 C10.71 2 6.42 2 2 2 Z " fill="#FACFF0" transform="translate(280,137)"/>
<path d="M0 0 C1.65424852 0.03012731 3.30854968 0.05749827 4.96289062 0.08203125 C8.99740202 0.14783447 13.02936868 0.25119668 17.0625 0.375 C17.0625 0.705 17.0625 1.035 17.0625 1.375 C12.92343868 2.15758424 9.02581471 2.4865754 4.81640625 2.48046875 C3.64916016 2.49529297 2.48191406 2.51011719 1.27929688 2.52539062 C-1.15287496 2.55008932 -3.58532319 2.55536136 -6.01757812 2.54101562 C-13.68782721 2.61163719 -13.68782721 2.61163719 -20.16015625 6.30078125 C-21.11537606 7.29813638 -22.04624984 8.32008992 -22.9375 9.375 C-24.9375 11.375 -24.9375 11.375 -27.5625 11.5 C-28.34625 11.45875 -29.13 11.4175 -29.9375 11.375 C-28.78869484 10.19138256 -27.63027482 9.01624755 -26.4375 7.87695312 C-24.91726112 6.42472528 -24.91726112 6.42472528 -23.75 4.79492188 C-17.79507738 -2.03124652 -8.24774307 -0.26073986 0 0 Z " fill="#374689" transform="translate(224.9375,18.625)"/>
<path d="M0 0 C29.7 0 59.4 0 90 0 C89.67 0.66 89.34 1.32 89 2 C87.96905212 1.99777939 86.93810425 1.99555878 85.87591553 1.99327087 C76.16450775 1.97300715 66.45310426 1.95801225 56.74168015 1.94818783 C51.748839 1.94296723 46.75601492 1.93588447 41.76318359 1.92456055 C36.9456592 1.91370249 32.12815122 1.90771695 27.31061554 1.90512276 C25.47180167 1.90327379 23.63298871 1.89966327 21.79418182 1.89426994 C19.22051546 1.88702083 16.6469171 1.8860107 14.07324219 1.88647461 C13.31151199 1.88287933 12.5497818 1.87928406 11.76496887 1.87557983 C8.33152629 1.88228534 5.31029172 2.12074467 2 3 C1.34 2.67 0.68 2.34 0 2 C0 1.34 0 0.68 0 0 Z " fill="#51529C" transform="translate(22,177)"/>
<path d="M0 0 C27.72 0 55.44 0 84 0 C84.495 1.485 84.495 1.485 85 3 C86.49985609 4.66710346 86.49985609 4.66710346 88 6 C87.34 6.66 86.68 7.32 86 8 C82 3.25 82 3.25 82 1 C54.94 1 27.88 1 0 1 C0 0.67 0 0.34 0 0 Z " fill="#BC2F81" transform="translate(132,131)"/>
<path d="M0 0 C0.33 0 0.66 0 1 0 C1 13.53 1 27.06 1 41 C-12.86 41 -26.72 41 -41 41 C-41 36.38 -41 31.76 -41 27 C-40.67 27 -40.34 27 -40 27 C-39.90912109 28.17369141 -39.90912109 28.17369141 -39.81640625 29.37109375 C-39.73261719 30.38300781 -39.64882812 31.39492187 -39.5625 32.4375 C-39.48128906 33.44683594 -39.40007812 34.45617187 -39.31640625 35.49609375 C-39.26788532 37.93640779 -39.26788532 37.93640779 -38 39 C-35.19045466 39.16015913 -32.40206554 39.25958106 -29.58984375 39.31640625 C-28.84383911 39.33505737 -28.09783447 39.3537085 -27.32922363 39.3729248 C-24.53210736 39.44142387 -21.73478864 39.50144376 -18.9375 39.5625 C-12.688125 39.706875 -6.43875 39.85125 0 40 C0 26.8 0 13.6 0 0 Z " fill="#EFD86C" transform="translate(257,66)"/>
<path d="M0 0 C13.86 0 27.72 0 42 0 C42 0.66 42 1.32 42 2 C28.47 2.33 14.94 2.66 1 3 C0.67 2.01 0.34 1.02 0 0 Z " fill="#FEF9C2" transform="translate(216,107)"/>
<path d="M0 0 C0.4954834 0.15992432 0.9909668 0.31984863 1.50146484 0.48461914 C4.98113209 1.20238126 8.43799854 1.19608868 11.9765625 1.24609375 C13.54948527 1.27900635 15.1224018 1.3122184 16.6953125 1.34570312 C19.16857979 1.39326596 21.64181724 1.43776545 24.11523438 1.47680664 C26.50676363 1.51639679 28.89780174 1.56794027 31.2890625 1.62109375 C32.03177399 1.6295079 32.77448547 1.63792206 33.53970337 1.64659119 C38.77324688 1.77324688 38.77324688 1.77324688 41 4 C28.13 4 15.26 4 2 4 C1.34 2.68 0.68 1.36 0 0 Z " fill="#C64090" transform="translate(227,150)"/>
<path d="M0 0 C0.33 0 0.66 0 1 0 C1.55928383 15.65994732 -6.3038485 27.55170191 -15 40 C-16.1171875 36.28125 -16.1171875 36.28125 -15.0625 33.75 C-14.711875 33.1725 -14.36125 32.595 -14 32 C-13.34 32 -12.68 32 -12 32 C-11.9175 31.4225 -11.835 30.845 -11.75 30.25 C-10.79586865 27.38760596 -9.11414621 26.11414621 -7 24 C-6.2127322 21.8618034 -6.2127322 21.8618034 -6 20 C-5.34 20 -4.68 20 -4 20 C-4.04125 19.071875 -4.0825 18.14375 -4.125 17.1875 C-4 14 -4 14 -2 11 C-1.55888435 9.11845117 -1.1890733 7.21937362 -0.875 5.3125 C-0.70742188 4.31863281 -0.53984375 3.32476562 -0.3671875 2.30078125 C-0.24601562 1.54152344 -0.12484375 0.78226562 0 0 Z " fill="#FBD8F5" transform="translate(21,94)"/>
<path d="M0 0 C7.47458825 -0.12668307 14.94890015 -0.2143025 22.42431641 -0.2746582 C24.96771592 -0.29981627 27.51104304 -0.33394631 30.05419922 -0.37719727 C33.70818938 -0.43778821 37.36122451 -0.46619767 41.015625 -0.48828125 C42.15429016 -0.51408768 43.29295532 -0.5398941 44.46612549 -0.56648254 C52.38154136 -0.56930051 52.38154136 -0.56930051 55.74902344 2.53051758 C56.1618457 3.34544678 56.57466797 4.16037598 57 5 C55.35 5 53.7 5 52 5 C51.505 3.02 51.505 3.02 51 1 C34.17 1 17.34 1 0 1 C0 0.67 0 0.34 0 0 Z " fill="#D9FDFE" transform="translate(113,177)"/>
<path d="M0 0 C0.80179688 0.00451172 1.60359375 0.00902344 2.4296875 0.01367188 C4.41149006 0.02546832 6.39325433 0.04340395 8.375 0.0625 C8.375 0.3925 8.375 0.7225 8.375 1.0625 C3.095 1.0625 -2.185 1.0625 -7.625 1.0625 C-7.625 6.6725 -7.625 12.2825 -7.625 18.0625 C-2.675 18.0625 2.275 18.0625 7.375 18.0625 C7.375 18.3925 7.375 18.7225 7.375 19.0625 C2.095 19.0625 -3.185 19.0625 -8.625 19.0625 C-10.210869 15.890762 -10.00366445 12.42736178 -10.1875 8.9375 C-10.23068359 8.18339844 -10.27386719 7.42929688 -10.31835938 6.65234375 C-10.4244832 4.78928112 -10.52525001 2.92591476 -10.625 1.0625 C-7.31505287 -0.59247356 -3.63377 -0.03834335 0 0 Z " fill="#E9CA3B" transform="translate(236.625,76.9375)"/>
<path d="M0 0 C0.87462891 0.00451172 1.74925781 0.00902344 2.65039062 0.01367188 C4.78779047 0.02535166 6.92515463 0.04328311 9.0625 0.0625 C9.0625 0.3925 9.0625 0.7225 9.0625 1.0625 C8.00337402 1.13766846 8.00337402 1.13766846 6.92285156 1.21435547 C3.7186996 1.44668546 0.5156647 1.69194847 -2.6875 1.9375 C-3.79867187 2.01613281 -4.90984375 2.09476563 -6.0546875 2.17578125 C-7.12460938 2.25957031 -8.19453125 2.34335937 -9.296875 2.4296875 C-10.28139648 2.50300293 -11.26591797 2.57631836 -12.28027344 2.65185547 C-14.91851187 3.0595656 -16.62199541 3.78537891 -18.9375 5.0625 C-20.71692979 5.47375794 -22.51101319 5.8247522 -24.3125 6.125 C-25.75689453 6.37056641 -25.75689453 6.37056641 -27.23046875 6.62109375 C-28.12378906 6.76675781 -29.01710938 6.91242187 -29.9375 7.0625 C-31.7628125 7.371875 -31.7628125 7.371875 -33.625 7.6875 C-34.388125 7.81125 -35.15125 7.935 -35.9375 8.0625 C-32.53735907 5.0497169 -28.94169529 4.00704789 -24.625 2.9375 C-23.35011719 2.60492187 -22.07523438 2.27234375 -20.76171875 1.9296875 C-13.74781238 0.33920005 -7.15401354 -0.07072409 0 0 Z " fill="#5F6A9D" transform="translate(98.9375,14.9375)"/>
<path d="M0 0 C3.30286086 1.10095362 3.78510901 1.6896019 5.6875 4.4375 C6.34298828 5.36369141 6.34298828 5.36369141 7.01171875 6.30859375 C8 8 8 8 8 10 C18.23 10 28.46 10 39 10 C39 10.33 39 10.66 39 11 C34.4793335 11.02468857 29.9587061 11.04285449 25.43798828 11.05493164 C23.89956987 11.05996552 22.36115625 11.06679308 20.82275391 11.07543945 C18.61359474 11.08754639 16.40449874 11.09323769 14.1953125 11.09765625 C13.16085495 11.10539818 13.16085495 11.10539818 12.10549927 11.11329651 C7.22774341 11.11387171 7.22774341 11.11387171 5 10 C5 9.01 5 8.02 5 7 C3.68 6.67 2.36 6.34 1 6 C0.67 4.02 0.34 2.04 0 0 Z " fill="#BC3683" transform="translate(228,130)"/>
<path d="M0 0 C5.8530184 -0.22325199 11.70353786 -0.38614011 17.55981445 -0.49438477 C19.54951155 -0.53952059 21.53891215 -0.600849 23.52758789 -0.67895508 C40.13317987 -1.3145957 40.13317987 -1.3145957 44.90185547 2.04345703 C46.6655521 4.31106699 47.93813838 6.33851136 49 9 C48.01 9 47.02 9 46 9 C46 8.34 46 7.68 46 7 C45.34 7 44.68 7 44 7 C43.65477295 6.18958252 43.3095459 5.37916504 42.95385742 4.54418945 C41.32279938 1.88257439 41.32279938 1.88257439 39.14810181 1.51425171 C36.66822127 1.3230316 34.22560857 1.28187 31.73828125 1.29296875 C30.83248825 1.27784744 29.92669525 1.26272614 28.99345398 1.24714661 C26.09955182 1.20414864 23.20669024 1.19542008 20.3125 1.1875 C18.35088356 1.16436506 16.38929204 1.13900182 14.42773438 1.11132812 C9.61839711 1.04835634 4.80971334 1.01611559 0 1 C0 0.67 0 0.34 0 0 Z " fill="#BB3383" transform="translate(179,119)"/>
<path d="M0 0 C-3.8294237 3.61726726 -8.47621953 4.44247814 -13.4375 5.6875 C-14.28376953 5.91244141 -15.13003906 6.13738281 -16.00195312 6.36914062 C-20.06657194 7.41632903 -23.76547999 8.32171918 -28 8 C-28 7.01 -28 6.02 -28 5 C-26.94039063 4.87882813 -25.88078125 4.75765625 -24.7890625 4.6328125 C-23.40098676 4.46399248 -22.01296881 4.29469692 -20.625 4.125 C-19.92632812 4.04636719 -19.22765625 3.96773437 -18.5078125 3.88671875 C-14.30927841 3.44779555 -14.30927841 3.44779555 -11 1 C-7.29306779 0.17623729 -3.79046256 -0.11148419 0 0 Z " fill="#6E4A89" transform="translate(152,215)"/>
<path d="M0 0 C2.86697492 1.28519565 4.97607712 2.57129254 7 5 C7 5.66 7 6.32 7 7 C7.61657471 7.09273193 8.23314941 7.18546387 8.8684082 7.28100586 C11.55047306 8.18567669 11.83551312 9.04058948 13.10546875 11.50390625 C14.705556 13.90189223 15.47412627 14.84550411 18.27197266 15.66748047 C20.97180332 15.91217965 23.60199509 15.97006437 26.3125 15.9375 C27.24384766 15.95361328 28.17519531 15.96972656 29.13476562 15.98632812 C31.4246794 16.02155757 33.71008496 16.02514292 36 16 C36 16.33 36 16.66 36 17 C17.83476281 18.62950651 17.83476281 18.62950651 11.5546875 15.01953125 C9.04267574 12.48063251 6.99907726 9.95571724 5 7 C4.44054687 6.26652344 3.88109375 5.53304687 3.3046875 4.77734375 C2.14137115 3.22943375 1.05774855 1.62188111 0 0 Z " fill="#4F9DC1" transform="translate(180,191)"/>
<path d="M0 0 C0.33 0 0.66 0 1 0 C1 4.29 1 8.58 1 13 C-12.9611418 13.86061833 -12.9611418 13.86061833 -16.5625 10.9375 C-19.23701472 7.71436688 -21.67652351 4.48521473 -24 1 C-20.1775535 1.53884708 -18.76475982 3.05227864 -16.375 6 C-14.05444701 8.95572315 -14.05444701 8.95572315 -11 11 C-7.32984725 11.1377685 -3.67388652 11.04271961 0 11 C0 7.37 0 3.74 0 0 Z " fill="#DEFAFD" transform="translate(215,181)"/>
<path d="M0 0 C0.33 0 0.66 0 1 0 C1 3.3 1 6.6 1 10 C12.88 10 24.76 10 37 10 C37 10.33 37 10.66 37 11 C24.46 11 11.92 11 -1 11 C-2.31625194 8.36749612 -1.74813658 7.19820944 -1.0625 4.375 C-0.86785156 3.55773437 -0.67320313 2.74046875 -0.47265625 1.8984375 C-0.23869141 0.95871094 -0.23869141 0.95871094 0 0 Z " fill="#704289" transform="translate(111,179)"/>
<path d="M0 0 C0.77261673 0.00141495 1.54523346 0.0028299 2.34126282 0.00428772 C4.80697514 0.00988159 7.2725964 0.02243292 9.73828125 0.03515625 C11.41080598 0.04017204 13.08333213 0.04473481 14.75585938 0.04882812 C18.85420171 0.05984901 22.95247604 0.07710941 27.05078125 0.09765625 C27.05078125 0.42765625 27.05078125 0.75765625 27.05078125 1.09765625 C26.03129395 1.11747559 25.01180664 1.13729492 23.96142578 1.15771484 C20.18545477 1.23368433 16.40987352 1.32241434 12.63427734 1.41503906 C10.99893885 1.45336477 9.36351501 1.48821132 7.72802734 1.51953125 C5.37957215 1.56510467 3.0317063 1.62310992 0.68359375 1.68359375 C-0.41648514 1.70092056 -0.41648514 1.70092056 -1.53878784 1.71859741 C-5.6989898 1.71633722 -5.6989898 1.71633722 -8.94921875 4.09765625 C-9.19134748 6.07894133 -9.19134748 6.07894133 -9.07421875 8.22265625 C-9.03296875 9.50140625 -8.99171875 10.78015625 -8.94921875 12.09765625 C-9.60921875 12.09765625 -10.26921875 12.09765625 -10.94921875 12.09765625 C-10.94921875 8.46765625 -10.94921875 4.83765625 -10.94921875 1.09765625 C-7.25381473 -0.13414509 -3.84618497 -0.02646487 0 0 Z " fill="#389CCE" transform="translate(227.94921875,181.90234375)"/>
<path d="M0 0 C4.72279931 -0.90436583 9.55740768 -1.64752032 13.74609375 1.17773438 C17.52366878 4.45420251 20.79029954 8.17567605 24 12 C23.01 12.33 22.02 12.66 21 13 C20.34 11.68 19.68 10.36 19 9 C18.34 9 17.68 9 17 9 C17 8.34 17 7.68 17 7 C16.34 7 15.68 7 15 7 C14.525625 6.360625 14.05125 5.72125 13.5625 5.0625 C9.54394162 1.82805057 5.02177841 2.17316477 0 2 C0 1.34 0 0.68 0 0 Z " fill="#4999C5" transform="translate(160,163)"/>
<path d="M0 0 C1.98 0 3.96 0 6 0 C3.15660753 3.79791193 0.13609513 6.72359179 -3.5625 9.6875 C-4.98755859 10.83798828 -4.98755859 10.83798828 -6.44140625 12.01171875 C-9 14 -9 14 -12 16 C-12 15.01 -12 14.02 -12 13 C-11.34 13 -10.68 13 -10 13 C-10 12.01 -10 11.02 -10 10 C-9.443125 9.773125 -8.88625 9.54625 -8.3125 9.3125 C-5.77527615 8.00796402 -5.77527615 8.00796402 -3.375 5.375 C-2.59125 4.59125 -1.8075 3.8075 -1 3 C-0.34 3 0.32 3 1 3 C0.67 2.01 0.34 1.02 0 0 Z " fill="#42508E" transform="translate(205,34)"/>
<path d="M0 0 C6.1618322 2.14106078 11.5981468 5.58663042 17.125 9 C14.125 10 14.125 10 11.125 9 C11.125 8.34 11.125 7.68 11.125 7 C5.46928139 5.29304267 -0.18992008 3.60665302 -5.875 2 C-5.875 1.34 -5.875 0.68 -5.875 0 C-3.32579585 -1.27460208 -2.66884711 -0.86028771 0 0 Z " fill="#414E8D" transform="translate(133.875,22)"/>
<path d="M0 0 C1.1970499 3.59497415 0.88182 6.56216639 0.44140625 10.296875 C0.30283203 11.50214844 0.16425781 12.70742187 0.02148438 13.94921875 C-0.12998047 15.20347656 -0.28144531 16.45773438 -0.4375 17.75 C-0.58509766 19.01972656 -0.73269531 20.28945312 -0.88476562 21.59765625 C-1.2501138 24.73257931 -1.6221004 27.86656931 -2 31 C-2.33 31 -2.66 31 -3 31 C-3.57446809 9.27659574 -3.57446809 9.27659574 0 0 Z " fill="#EDCA49" transform="translate(25,61)"/>
<path d="M0 0 C2 3.75 2 3.75 2 6 C2.67546875 5.86980469 3.3509375 5.73960937 4.046875 5.60546875 C6.76042911 5.18588741 9.25413252 4.89257169 12 5 C14.6875 7.25 14.6875 7.25 16 10 C15.67 10.99 15.34 11.98 15 13 C14.4225 12.195625 13.845 11.39125 13.25 10.5625 C9.26488136 6.44957872 3.37200223 7.09424565 -2 7 C-1.125 2.25 -1.125 2.25 0 0 Z " fill="#C0EDFB" transform="translate(162,156)"/>
<path d="M0 0 C0.33 0.99 0.66 1.98 1 3 C0.01 3.33 -0.98 3.66 -2 4 C-2.70151152 5.3153341 -3.36525925 6.65117592 -4 8 C-5.5 9.75 -5.5 9.75 -7 11 C-7.66 11 -8.32 11 -9 11 C-9 12.65 -9 14.3 -9 16 C-9.99 15.34 -10.98 14.68 -12 14 C-10.57910701 10.84717276 -8.84968149 8.46222036 -6.5625 5.875 C-5.96566406 5.19179688 -5.36882813 4.50859375 -4.75390625 3.8046875 C-3 2 -3 2 0 0 Z " fill="#435190" transform="translate(45,33)"/>
<path d="M0 0 C0.66 0 1.32 0 2 0 C2.10251672 5.12583611 2.03590199 9.94997778 1 15 C0.34 15 -0.32 15 -1 15 C-1.33 15.66 -1.66 16.32 -2 17 C-2.25706972 11.08739655 -1.2982126 5.76081841 0 0 Z " fill="#7A5394" transform="translate(30,183)"/>
<path d="M0 0 C1.65 0.33 3.3 0.66 5 1 C1.68542782 5.69564393 -2.36279281 8.72469104 -7 12 C-6.38801624 8.56049636 -5.07941153 6.48435515 -2.9375 3.75 C-2.38964844 3.04359375 -1.84179688 2.3371875 -1.27734375 1.609375 C-0.85582031 1.07828125 -0.43429688 0.5471875 0 0 Z " fill="#E5EDF6" transform="translate(196,23)"/>
<path d="M0 0 C10.55808656 0.77904328 10.55808656 0.77904328 15 3 C15 3.33 15 3.66 15 4 C13.56853622 4.41713515 12.12941114 4.8080497 10.6875 5.1875 C9.88699219 5.40792969 9.08648437 5.62835937 8.26171875 5.85546875 C6 6 6 6 4.39453125 4.61328125 C3.93433594 4.08089844 3.47414063 3.54851563 3 3 C2.01 2.67 1.02 2.34 0 2 C0 1.34 0 0.68 0 0 Z " fill="#3D4C93" transform="translate(114,17)"/>
<path d="M0 0 C1.15628906 0.09023437 2.31257813 0.18046875 3.50390625 0.2734375 C6.4375 0.625 6.4375 0.625 8.4375 1.625 C8.1075 2.945 7.7775 4.265 7.4375 5.625 C7.4375 4.635 7.4375 3.645 7.4375 2.625 C1.8275 2.625 -3.7825 2.625 -9.5625 2.625 C-9.5625 1.965 -9.5625 1.305 -9.5625 0.625 C-6.05760444 -0.54329852 -3.67096645 -0.30352125 0 0 Z " fill="#C12C81" transform="translate(289.5625,134.375)"/>
<path d="M0 0 C0.99 0 1.98 0 3 0 C4.19287411 3.87684087 5 6.91621923 5 11 C4.01 11.33 3.02 11.66 2 12 C0.26043342 10.26043342 0.62809614 7.8063378 0.4375 5.4375 C0.35371094 4.42558594 0.26992187 3.41367188 0.18359375 2.37109375 C0.12300781 1.58863281 0.06242188 0.80617187 0 0 Z " fill="#714A8E" transform="translate(150,189)"/>
<path d="M0 0 C7.48291572 6.15034169 7.48291572 6.15034169 10 10 C7.03 9.505 7.03 9.505 4 9 C4 8.01 4 7.02 4 6 C2.68 5.67 1.36 5.34 0 5 C0 3.35 0 1.7 0 0 Z " fill="#50A3CC" transform="translate(184,176)"/>
<path d="M0 0 C0.66 1.32 1.32 2.64 2 4 C1.34 4.66 0.68 5.32 0 6 C-0.33 6.99 -0.66 7.98 -1 9 C-1.66 9 -2.32 9 -3 9 C-3 8.34 -3 7.68 -3 7 C-4.65 7.33 -6.3 7.66 -8 8 C-5.33333333 5.33333333 -2.66666667 2.66666667 0 0 Z " fill="#3D4D93" transform="translate(194,30)"/>
<path d="M0 0 C1.14626322 0.97866338 2.29199788 1.95794587 3.4375 2.9375 C4.07558594 3.48277344 4.71367187 4.02804688 5.37109375 4.58984375 C6.26991149 5.36795695 7.15936528 6.15936528 8 7 C10.34987262 7.23527773 12.70556039 7.41386417 15.0625 7.5625 C16.99802734 7.68818359 16.99802734 7.68818359 18.97265625 7.81640625 C20.47119141 7.90728516 20.47119141 7.90728516 22 8 C22 8.33 22 8.66 22 9 C7.72166772 10.06833127 7.72166772 10.06833127 3.6015625 7.51171875 C1.53686985 5.07941009 0 3.25861463 0 0 Z " fill="#56A1C6" transform="translate(194,186)"/>
<path d="M0 0 C3.96 0 7.92 0 12 0 C9 2 9 2 7 2 C7 3.65 7 5.3 7 7 C5.83040013 6.02433888 4.66438823 5.044375 3.5 4.0625 C2.8503125 3.51722656 2.200625 2.97195312 1.53125 2.41015625 C1.0259375 1.94480469 0.520625 1.47945312 0 1 C0 0.67 0 0.34 0 0 Z " fill="#4399CA" transform="translate(14,145)"/>
<path d="M0 0 C0.66 0.33 1.32 0.66 2 1 C1.67 2.32 1.34 3.64 1 5 C1.99 5.33 2.98 5.66 4 6 C3.67 6.66 3.34 7.32 3 8 C1.33333333 8.33333333 -0.33333333 8.66666667 -2 9 C-2.33 9.66 -2.66 10.32 -3 11 C-2.44894091 7.0507432 -1.61064629 3.65079826 0 0 Z " fill="#CF2287" transform="translate(8,130)"/>
<path d="M0 0 C0.99 0.66 1.98 1.32 3 2 C1 4 1 4 -2.9140625 4.1953125 C-4.48449351 4.18200376 -6.05486221 4.15813602 -7.625 4.125 C-8.42679688 4.11597656 -9.22859375 4.10695313 -10.0546875 4.09765625 C-12.03658523 4.07406223 -14.01832981 4.03819065 -16 4 C-16 3.67 -16 3.34 -16 3 C-15.25234375 2.93941406 -14.5046875 2.87882812 -13.734375 2.81640625 C-12.74953125 2.73261719 -11.7646875 2.64882813 -10.75 2.5625 C-9.28820312 2.44068359 -9.28820312 2.44068359 -7.796875 2.31640625 C-3.54670224 2.01249767 -3.54670224 2.01249767 0 0 Z " fill="#EEF6FE" transform="translate(184,35)"/>
<path d="M0 0 C2.4375 0.8125 2.4375 0.8125 5 2 C5.33 2.99 5.66 3.98 6 5 C6.66 5.33 7.32 5.66 8 6 C6.35 6.33 4.7 6.66 3 7 C0 3.375 0 3.375 0 0 Z " fill="#6E4888" transform="translate(29,198)"/>
<path d="M0 0 C3.35595828 0.59927826 5.37801226 1.84622436 8 4 C7.67 4.66 7.34 5.32 7 6 C6.67 5.67 6.34 5.34 6 5 C5.67 5.66 5.34 6.32 5 7 C3.68 7 2.36 7 1 7 C0.67 6.01 0.34 5.02 0 4 C0.66 4 1.32 4 2 4 C2 3.01 2 2.02 2 1 C1.34 0.67 0.68 0.34 0 0 Z " fill="#E0F4F8" transform="translate(12,146)"/>
<path d="M0 0 C3.53233755 1.17744585 3.86308075 1.95605641 5.6875 5.0625 C6.12449219 5.79597656 6.56148437 6.52945313 7.01171875 7.28515625 C7.33785156 7.85105469 7.66398438 8.41695312 8 9 C7.01 9.33 6.02 9.66 5 10 C5 9.01 5 8.02 5 7 C3.68 6.67 2.36 6.34 1 6 C0.67 4.02 0.34 2.04 0 0 Z " fill="#C63A8E" transform="translate(228,130)"/>
<path d="M0 0 C1.32 0.33 2.64 0.66 4 1 C4.33 2.65 4.66 4.3 5 6 C6.32 6.33 7.64 6.66 9 7 C8.67 8.32 8.34 9.64 8 11 C4.32966073 7.72291137 2.30718811 4.28477792 0 0 Z " fill="#C33687" transform="translate(219,139)"/>
<path d="M0 0 C2.24940295 -0.08119503 4.49964871 -0.13927819 6.75 -0.1875 C8.00296875 -0.22230469 9.2559375 -0.25710937 10.546875 -0.29296875 C14.14109357 0.01197061 15.44725126 0.54394629 18 3 C17.01 3 16.02 3 15 3 C14.67 3.66 14.34 4.32 14 5 C13.67 3.68 13.34 2.36 13 1 C8.71 1 4.42 1 0 1 C0 0.67 0 0.34 0 0 Z " fill="#369AD0" transform="translate(202,195)"/>
<path d="M0 0 C0.99 0.33 1.98 0.66 3 1 C3 2.98 3 4.96 3 7 C3.66 7.33 4.32 7.66 5 8 C3.35 8 1.7 8 0 8 C0 5.36 0 2.72 0 0 Z " fill="#FEFEEE" transform="translate(125,55)"/>
<path d="M0 0 C3.16115776 1.36983503 3.9927092 1.9890638 6 5 C5.67 5.99 5.34 6.98 5 8 C2.5 5.6875 2.5 5.6875 0 3 C0 2.01 0 1.02 0 0 Z " fill="#DAF4FB" transform="translate(172,161)"/>
<path d="M0 0 C0.6875 1.8125 0.6875 1.8125 1 4 C-0.125 5.75 -0.125 5.75 -2 7 C-4.6875 7.1875 -4.6875 7.1875 -7 7 C-4.66666667 4.66666667 -2.33333333 2.33333333 0 0 Z " fill="#415193" transform="translate(202,23)"/>
<path d="M0 0 C2 1 2 1 2.8515625 3.06640625 C3.10679688 3.89011719 3.36203125 4.71382812 3.625 5.5625 C3.88539062 6.38878906 4.14578125 7.21507812 4.4140625 8.06640625 C4.60742188 8.70449219 4.80078125 9.34257812 5 10 C4.01 10.495 4.01 10.495 3 11 C1.68 7.7 0.36 4.4 -1 1 C-0.67 0.67 -0.34 0.34 0 0 Z " fill="#73518B" transform="translate(76,207)"/>
<path d="M0 0 C0.66 0.99 1.32 1.98 2 3 C-0.79784711 3 -2.9790678 2.62804225 -5.6875 2 C-6.89986328 1.7215625 -6.89986328 1.7215625 -8.13671875 1.4375 C-8.75160156 1.293125 -9.36648437 1.14875 -10 1 C-6.25184092 -1.1012407 -4.19807578 -1.18641272 0 0 Z " fill="#775293" transform="translate(71,201)"/>
<path d="M0 0 C0.66 0.33 1.32 0.66 2 1 C0.68 3.64 -0.64 6.28 -2 9 C-2.99 9 -3.98 9 -5 9 C-5 8.34 -5 7.68 -5 7 C-4.34 6.67 -3.68 6.34 -3 6 C-2.29788106 4.34795544 -1.63028587 2.68076231 -1 1 C-0.67 0.67 -0.34 0.34 0 0 Z " fill="#439AC3" transform="translate(162,153)"/>
<path d="M0 0 C2.97 1.98 2.97 1.98 6 4 C5.34 4.66 4.68 5.32 4 6 C2.02 5.01 0.04 4.02 -2 3 C-1.34 2.01 -0.68 1.02 0 0 Z " fill="#42508E" transform="translate(151,32)"/>
<path d="M0 0 C0 3.61029169 -0.96092582 6.55806676 -2 10 C-2.99 9.34 -3.98 8.68 -5 8 C-3.62845496 5.04590299 -2.01136276 2.55991624 0 0 Z " fill="#51619A" transform="translate(38,39)"/>
<path d="M0 0 C0.99 0 1.98 0 3 0 C3 0.66 3 1.32 3 2 C3.99 2 4.98 2 6 2 C6.33 3.65 6.66 5.3 7 7 C5.83040013 6.02433888 4.66438823 5.044375 3.5 4.0625 C2.8503125 3.51722656 2.200625 2.97195312 1.53125 2.41015625 C1.0259375 1.94480469 0.520625 1.47945312 0 1 C0 0.67 0 0.34 0 0 Z " fill="#D3F6FE" transform="translate(178,169)"/>
<path d="M0 0 C1 2 1 2 0.44140625 3.9453125 C0.15136719 4.66460937 -0.13867188 5.38390625 -0.4375 6.125 C-0.72496094 6.84945312 -1.01242188 7.57390625 -1.30859375 8.3203125 C-1.53675781 8.87460937 -1.76492187 9.42890625 -2 10 C-2.33 10 -2.66 10 -3 10 C-3.36923077 3.47692308 -3.36923077 3.47692308 -1.5 1.0625 C-1.005 0.711875 -0.51 0.36125 0 0 Z " fill="#FFF8C3" transform="translate(27,54)"/>
</svg>
